<?xml version="1.0" encoding="UTF-8"?>
<!DOCTYPE svg PUBLIC "-//W3C//DTD SVG 1.1//EN" "http://www.w3.org/Graphics/SVG/1.1/DTD/svg11.dtd">
<svg xmlns="http://www.w3.org/2000/svg" version="1.1" width="612px" height="792px" style="shape-rendering:geometricPrecision; text-rendering:geometricPrecision; image-rendering:optimizeQuality; fill-rule:evenodd; clip-rule:evenodd" xmlns:xlink="http://www.w3.org/1999/xlink">
<g><path style="opacity:0.992" fill="#000000" d="M 611.5,142.5 C 611.5,165.5 611.5,188.5 611.5,211.5C 608.157,219.006 602.49,223.84 594.5,226C 401.5,226.667 208.5,226.667 15.5,226C 8.07043,223.4 2.73709,218.567 -0.5,211.5C -0.5,188.5 -0.5,165.5 -0.5,142.5C 2.73709,135.433 8.07043,130.6 15.5,128C 208.833,127.333 402.167,127.333 595.5,128C 602.93,130.6 608.263,135.433 611.5,142.5 Z"/></g>
<g><path style="opacity:0.984" fill="#000000" d="M 611.5,361.5 C 611.5,384.167 611.5,406.833 611.5,429.5C 608.356,438.425 602.022,443.592 592.5,445C 401.167,445.667 209.833,445.667 18.5,445C 8.97754,443.592 2.64421,438.425 -0.5,429.5C -0.5,406.833 -0.5,384.167 -0.5,361.5C 2.64421,352.575 8.97754,347.408 18.5,346C 209.833,345.333 401.167,345.333 592.5,346C 602.022,347.408 608.356,352.575 611.5,361.5 Z"/></g>
<g><path style="opacity:0.992" fill="#000000" d="M 611.5,579.5 C 611.5,602.5 611.5,625.5 611.5,648.5C 608.263,655.567 602.93,660.4 595.5,663C 402.167,663.667 208.833,663.667 15.5,663C 8.07043,660.4 2.73709,655.567 -0.5,648.5C -0.5,625.5 -0.5,602.5 -0.5,579.5C 2.73709,572.433 8.07043,567.6 15.5,565C 208.833,564.333 402.167,564.333 595.5,565C 602.93,567.6 608.263,572.433 611.5,579.5 Z"/></g>
</svg>
