<?xml version="1.0" encoding="UTF-8"?>
<!DOCTYPE svg PUBLIC "-//W3C//DTD SVG 1.1//EN" "http://www.w3.org/Graphics/SVG/1.1/DTD/svg11.dtd">
<svg xmlns="http://www.w3.org/2000/svg" version="1.1" width="48px" height="48px" style="shape-rendering:geometricPrecision; text-rendering:geometricPrecision; image-rendering:optimizeQuality; fill-rule:evenodd; clip-rule:evenodd" xmlns:xlink="http://www.w3.org/1999/xlink">
<g><path style="opacity:0.959" fill="#fefffe" d="M 21.5,5.5 C 22.8734,5.34332 24.2068,5.50999 25.5,6C 29.9095,9.62082 34.4095,13.1208 39,16.5C 39.4997,24.8267 39.6664,33.16 39.5,41.5C 34.8333,41.5 30.1667,41.5 25.5,41.5C 25.5,37.5 25.5,33.5 25.5,29.5C 24.1667,29.5 22.8333,29.5 21.5,29.5C 21.5,33.5 21.5,37.5 21.5,41.5C 16.8333,41.5 12.1667,41.5 7.5,41.5C 7.3336,33.16 7.50027,24.8267 8,16.5C 12.8455,13.1735 17.3455,9.50681 21.5,5.5 Z"/></g>
</svg>
