<?xml version="1.0" encoding="UTF-8"?>
<!DOCTYPE svg PUBLIC "-//W3C//DTD SVG 1.1//EN" "http://www.w3.org/Graphics/SVG/1.1/DTD/svg11.dtd">
<svg xmlns="http://www.w3.org/2000/svg" version="1.1" width="48px" height="48px" style="shape-rendering:geometricPrecision; text-rendering:geometricPrecision; image-rendering:optimizeQuality; fill-rule:evenodd; clip-rule:evenodd" xmlns:xlink="http://www.w3.org/1999/xlink">
<g><path style="opacity:0.857" fill="#fefffe" d="M 7.5,7.5 C 10.3553,6.1968 13.3553,6.1968 16.5,7.5C 18.8076,10.9748 21.3076,14.3081 24,17.5C 26.3773,13.912 28.8773,10.412 31.5,7C 34.5,6.33333 37.5,6.33333 40.5,7C 36.3066,12.36 32.3066,17.86 28.5,23.5C 32.2541,29.3421 36.2541,35.0087 40.5,40.5C 37.5,41.8333 34.5,41.8333 31.5,40.5C 29,36.8333 26.5,33.1667 24,29.5C 21.5326,33.6004 18.6993,37.4338 15.5,41C 12.5,41.6667 9.5,41.6667 6.5,41C 10.8333,35.3333 15.1667,29.6667 19.5,24C 15.601,18.3441 11.601,12.8441 7.5,7.5 Z"/></g>
</svg>
