<?xml version="1.0" standalone="no"?>
<!DOCTYPE svg PUBLIC "-//W3C//DTD SVG 20010904//EN"
 "http://www.w3.org/TR/2001/REC-SVG-20010904/DTD/svg10.dtd">
<svg version="1.0" xmlns="http://www.w3.org/2000/svg"
 width="256.000000pt" height="228.000000pt" viewBox="0 0 256.000000 228.000000"
 preserveAspectRatio="xMidYMid meet">

<g transform="translate(0.000000,228.000000) scale(0.100000,-0.100000)"
fill="#000000" stroke="none">
<path d="M906 2269 c-71 -20 -115 -100 -95 -173 15 -55 89 -197 100 -190 5 3
6 -1 4 -8 -3 -7 6 -37 20 -65 18 -38 29 -51 40 -47 8 4 15 1 15 -6 0 -6 -4 -8
-10 -5 -5 3 -10 -1 -10 -9 0 -9 5 -16 10 -16 6 0 9 -3 8 -7 -4 -17 14 -53 23
-47 6 3 9 0 8 -7 -3 -24 22 -79 34 -72 5 3 7 2 4 -4 -7 -10 40 -113 56 -124 5
-3 9 -10 8 -15 0 -12 38 -97 47 -104 4 -3 12 -14 18 -24 5 -11 26 -28 45 -38
42 -24 116 -19 136 8 7 10 13 14 13 9 0 -4 9 0 20 10 11 10 17 21 15 25 -3 5
-1 10 4 12 5 1 52 90 105 197 79 161 93 198 83 210 -10 14 -10 14 4 4 13 -11
18 -7 32 23 9 19 17 41 17 49 0 7 4 15 9 17 15 5 62 108 55 120 -4 6 -3 8 3 5
13 -8 26 20 16 35 -3 6 -1 8 4 5 12 -8 34 42 40 87 4 41 -30 108 -69 131 -59
36 -326 22 -302 -16 3 -5 -1 -6 -9 -3 -43 16 -39 -74 6 -148 19 -32 36 -55 39
-53 2 2 4 -26 3 -63 0 -76 -12 -103 -55 -128 -16 -10 -27 -21 -25 -24 3 -4
-33 -7 -79 -6 -74 1 -86 4 -119 28 -19 16 -38 36 -41 45 -12 37 -23 112 -16
108 3 -2 14 14 24 35 10 22 23 46 30 53 26 25 44 72 41 107 -3 40 -41 75 -89
84 -46 8 -187 5 -220 -5z m774 -23 c0 -3 -4 -8 -10 -11 -5 -3 -10 -1 -10 4 0
6 5 11 10 11 6 0 10 -2 10 -4z m0 -40 c0 -3 -4 -8 -10 -11 -5 -3 -10 -1 -10 4
0 6 5 11 10 11 6 0 10 -2 10 -4z m0 -40 c0 -3 -4 -8 -10 -11 -5 -3 -10 -1 -10
4 0 6 5 11 10 11 6 0 10 -2 10 -4z m-663 -98 c-3 -8 -6 -5 -6 6 -1 11 2 17 5
13 3 -3 4 -12 1 -19z m663 -32 c0 -3 -4 -8 -10 -11 -5 -3 -10 -1 -10 4 0 6 5
11 10 11 6 0 10 -2 10 -4z m0 -40 c0 -3 -4 -8 -10 -11 -5 -3 -10 -1 -10 4 0 6
5 11 10 11 6 0 10 -2 10 -4z"/>
<path d="M530 1269 c0 -6 -5 -7 -10 -4 -6 4 -26 1 -46 -5 -27 -9 -34 -16 -29
-29 5 -12 4 -13 -6 -4 -9 9 -19 8 -43 -4 -33 -17 -80 -49 -106 -73 -10 -8 -31
-26 -49 -40 -17 -14 -31 -33 -31 -43 0 -10 -4 -16 -9 -13 -5 3 -14 -1 -21 -9
-7 -8 -9 -15 -5 -15 4 0 -3 -9 -16 -20 -21 -17 -22 -21 -9 -30 13 -9 12 -10
-3 -8 -19 3 -38 -25 -82 -125 -15 -33 -24 -65 -21 -73 3 -8 1 -14 -4 -14 -9 0
-26 -83 -22 -112 1 -10 -3 -18 -8 -18 -6 0 -10 -53 -10 -135 l0 -135 1280 0
1280 0 0 54 c0 44 -4 55 -17 59 -14 4 -14 5 -2 6 21 1 21 69 0 74 -14 4 -14 5
-1 6 12 1 14 11 11 47 -2 29 -6 42 -11 33 -5 -7 -7 5 -4 29 2 23 -2 54 -8 69
-6 16 -11 31 -10 35 1 4 -12 39 -29 79 -40 94 -90 170 -108 164 -9 -4 -11 0
-7 11 3 8 -1 22 -9 30 -8 9 -15 12 -15 7 0 -4 -6 3 -13 17 -8 14 -19 24 -25
22 -7 -1 -12 4 -12 11 0 26 -85 79 -250 157 -8 4 -80 8 -158 9 -112 1 -142 -2
-136 -12 5 -9 4 -9 -7 1 -7 6 -32 12 -56 12 -32 0 -45 -5 -53 -20 -6 -11 -8
-20 -5 -20 4 0 -1 -7 -10 -16 -9 -9 -14 -23 -11 -30 3 -8 1 -14 -3 -14 -5 0
-21 -23 -35 -52 -20 -39 -23 -54 -13 -60 9 -5 7 -8 -5 -8 -11 0 -36 -40 -79
-127 -35 -71 -67 -130 -71 -131 -5 -2 -16 -11 -24 -20 -10 -10 -40 -18 -76
-20 -49 -4 -65 -1 -88 17 -16 11 -33 21 -37 21 -4 0 -26 39 -47 85 -22 47 -46
85 -54 85 -7 0 -10 5 -7 10 9 15 -5 51 -17 44 -6 -4 -8 -2 -4 4 8 14 -24 83
-36 76 -5 -3 -8 0 -6 7 4 21 -23 80 -34 73 -5 -3 -8 0 -7 7 2 8 -5 31 -13 51
l-16 37 -206 -1 c-126 0 -206 -4 -206 -9z m70 -33 c0 -3 -4 -8 -10 -11 -5 -3
-10 -1 -10 4 0 6 5 11 10 11 6 0 10 -2 10 -4z m180 0 c0 -3 -4 -8 -10 -11 -5
-3 -10 -1 -10 4 0 6 5 11 10 11 6 0 10 -2 10 -4z m900 0 c0 -3 -4 -8 -10 -11
-5 -3 -10 -1 -10 4 0 6 5 11 10 11 6 0 10 -2 10 -4z m220 -6 c0 -5 -4 -10 -10
-10 -5 0 -10 5 -10 10 0 6 5 10 10 10 6 0 10 -4 10 -10z m200 0 c0 -5 -2 -10
-4 -10 -3 0 -8 5 -11 10 -3 6 -1 10 4 10 6 0 11 -4 11 -10z m-1500 -40 c0 -5
-4 -10 -10 -10 -5 0 -10 5 -10 10 0 6 5 10 10 10 6 0 10 -4 10 -10z m180 0 c0
-5 -4 -10 -10 -10 -5 0 -10 5 -10 10 0 6 5 10 10 10 6 0 10 -4 10 -10z m1120
0 c0 -5 -4 -10 -10 -10 -5 0 -10 5 -10 10 0 6 5 10 10 10 6 0 10 -4 10 -10z
m200 0 c0 -5 -4 -10 -10 -10 -5 0 -10 5 -10 10 0 6 5 10 10 10 6 0 10 -4 10
-10z m-1505 -40 c3 -5 1 -10 -4 -10 -6 0 -11 5 -11 10 0 6 2 10 4 10 3 0 8 -4
11 -10z m180 0 c3 -5 1 -10 -4 -10 -6 0 -11 5 -11 10 0 6 2 10 4 10 3 0 8 -4
11 -10z m215 0 c0 -5 -5 -10 -11 -10 -5 0 -7 5 -4 10 3 6 8 10 11 10 2 0 4 -4
4 -10z m910 0 c0 -5 -4 -10 -10 -10 -5 0 -10 5 -10 10 0 6 5 10 10 10 6 0 10
-4 10 -10z m340 0 c0 -5 -5 -10 -11 -10 -5 0 -7 5 -4 10 3 6 8 10 11 10 2 0 4
-4 4 -10z m-1640 -84 c0 -3 -4 -8 -10 -11 -5 -3 -10 -1 -10 4 0 6 5 11 10 11
6 0 10 -2 10 -4z m180 0 c0 -3 -4 -8 -10 -11 -5 -3 -10 -1 -10 4 0 6 5 11 10
11 6 0 10 -2 10 -4z m900 0 c0 -3 -4 -8 -10 -11 -5 -3 -10 -1 -10 4 0 6 5 11
10 11 6 0 10 -2 10 -4z m220 -6 c0 -5 -4 -10 -10 -10 -5 0 -10 5 -10 10 0 6 5
10 10 10 6 0 10 -4 10 -10z m200 0 c0 -5 -2 -10 -4 -10 -3 0 -8 5 -11 10 -3 6
-1 10 4 10 6 0 11 -4 11 -10z m140 0 c0 -5 -2 -10 -4 -10 -3 0 -8 5 -11 10 -3
6 -1 10 4 10 6 0 11 -4 11 -10z m-1940 -40 c0 -5 -4 -10 -10 -10 -5 0 -10 5
-10 10 0 6 5 10 10 10 6 0 10 -4 10 -10z m300 0 c0 -5 -4 -10 -10 -10 -5 0
-10 5 -10 10 0 6 5 10 10 10 6 0 10 -4 10 -10z m180 0 c0 -5 -4 -10 -10 -10
-5 0 -10 5 -10 10 0 6 5 10 10 10 6 0 10 -4 10 -10z m975 0 c3 -5 1 -10 -4
-10 -6 0 -11 5 -11 10 0 6 2 10 4 10 3 0 8 -4 11 -10z m145 0 c0 -5 -4 -10
-10 -10 -5 0 -10 5 -10 10 0 6 5 10 10 10 6 0 10 -4 10 -10z m200 0 c0 -5 -4
-10 -10 -10 -5 0 -10 5 -10 10 0 6 5 10 10 10 6 0 10 -4 10 -10z m140 0 c0 -5
-4 -10 -10 -10 -5 0 -10 5 -10 10 0 6 5 10 10 10 6 0 10 -4 10 -10z m120 6 c0
-3 -4 -8 -10 -11 -5 -3 -10 -1 -10 4 0 6 5 11 10 11 6 0 10 -2 10 -4z m-1765
-46 c3 -5 1 -10 -4 -10 -6 0 -11 5 -11 10 0 6 2 10 4 10 3 0 8 -4 11 -10z
m180 0 c3 -5 1 -10 -4 -10 -6 0 -11 5 -11 10 0 6 2 10 4 10 3 0 8 -4 11 -10z
m215 0 c0 -5 -5 -10 -11 -10 -5 0 -7 5 -4 10 3 6 8 10 11 10 2 0 4 -4 4 -10z
m910 0 c0 -5 -4 -10 -10 -10 -5 0 -10 5 -10 10 0 6 5 10 10 10 6 0 10 -4 10
-10z m340 0 c0 -5 -4 -10 -10 -10 -5 0 -10 5 -10 10 0 6 5 10 10 10 6 0 10 -4
10 -10z m-2087 -47 c-7 -2 -19 -2 -25 0 -7 3 -2 5 12 5 14 0 19 -2 13 -5z
m864 -45 c-3 -8 -6 -5 -6 6 -1 11 2 17 5 13 3 -3 4 -12 1 -19z m1130 0 c-3 -8
-6 -5 -6 6 -1 11 2 17 5 13 3 -3 4 -12 1 -19z m-1994 5 c-7 -2 -21 -2 -30 0
-10 3 -4 5 12 5 17 0 24 -2 18 -5z m-13 -43 c0 -5 -4 -10 -10 -10 -5 0 -10 5
-10 10 0 6 5 10 10 10 6 0 10 -4 10 -10z m160 0 c0 -5 -4 -10 -10 -10 -5 0
-10 5 -10 10 0 6 5 10 10 10 6 0 10 -4 10 -10z m300 0 c0 -5 -4 -10 -10 -10
-5 0 -10 5 -10 10 0 6 5 10 10 10 6 0 10 -4 10 -10z m180 0 c0 -5 -4 -10 -10
-10 -5 0 -10 5 -10 10 0 6 5 10 10 10 6 0 10 -4 10 -10z m1120 0 c0 -5 -4 -10
-10 -10 -5 0 -10 5 -10 10 0 6 5 10 10 10 6 0 10 -4 10 -10z m200 0 c0 -5 -4
-10 -10 -10 -5 0 -10 5 -10 10 0 6 5 10 10 10 6 0 10 -4 10 -10z m140 0 c0 -5
-4 -10 -10 -10 -5 0 -10 5 -10 10 0 6 5 10 10 10 6 0 10 -4 10 -10z m120 6 c0
-3 -4 -8 -10 -11 -5 -3 -10 -1 -10 4 0 6 5 11 10 11 6 0 10 -2 10 -4z m-2220
-46 c0 -5 -4 -10 -10 -10 -5 0 -10 5 -10 10 0 6 5 10 10 10 6 0 10 -4 10 -10z
m155 0 c3 -5 1 -10 -4 -10 -6 0 -11 5 -11 10 0 6 2 10 4 10 3 0 8 -4 11 -10z
m300 0 c3 -5 1 -10 -4 -10 -6 0 -11 5 -11 10 0 6 2 10 4 10 3 0 8 -4 11 -10z
m185 0 c0 -5 -4 -10 -10 -10 -5 0 -10 5 -10 10 0 6 5 10 10 10 6 0 10 -4 10
-10z m210 0 c0 -5 -5 -10 -11 -10 -5 0 -7 5 -4 10 3 6 8 10 11 10 2 0 4 -4 4
-10z m910 0 c0 -5 -4 -10 -10 -10 -5 0 -10 5 -10 10 0 6 5 10 10 10 6 0 10 -4
10 -10z m200 0 c0 -5 -4 -10 -10 -10 -5 0 -10 5 -10 10 0 6 5 10 10 10 6 0 10
-4 10 -10z m140 0 c0 -5 -4 -10 -10 -10 -5 0 -10 5 -10 10 0 6 5 10 10 10 6 0
10 -4 10 -10z m115 0 c3 -5 1 -10 -4 -10 -6 0 -11 5 -11 10 0 6 2 10 4 10 3 0
8 -4 11 -10z m-2202 -47 c-7 -2 -21 -2 -30 0 -10 3 -4 5 12 5 17 0 24 -2 18
-5z m0 -40 c-7 -2 -21 -2 -30 0 -10 3 -4 5 12 5 17 0 24 -2 18 -5z m0 -40 c-7
-2 -21 -2 -30 0 -10 3 -4 5 12 5 17 0 24 -2 18 -5z m1527 3 c0 -3 -4 -8 -10
-11 -5 -3 -10 -1 -10 4 0 6 5 11 10 11 6 0 10 -2 10 -4z m-1540 -46 c0 -5 -4
-10 -10 -10 -5 0 -10 5 -10 10 0 6 5 10 10 10 6 0 10 -4 10 -10z m160 0 c0 -5
-4 -10 -10 -10 -5 0 -10 5 -10 10 0 6 5 10 10 10 6 0 10 -4 10 -10z m300 0 c0
-5 -4 -10 -10 -10 -5 0 -10 5 -10 10 0 6 5 10 10 10 6 0 10 -4 10 -10z m180 0
c0 -5 -4 -10 -10 -10 -5 0 -10 5 -10 10 0 6 5 10 10 10 6 0 10 -4 10 -10z
m1120 0 c0 -5 -4 -10 -10 -10 -5 0 -10 5 -10 10 0 6 5 10 10 10 6 0 10 -4 10
-10z m200 0 c0 -5 -4 -10 -10 -10 -5 0 -10 5 -10 10 0 6 5 10 10 10 6 0 10 -4
10 -10z m140 0 c0 -5 -4 -10 -10 -10 -5 0 -10 5 -10 10 0 6 5 10 10 10 6 0 10
-4 10 -10z m115 0 c3 -5 1 -10 -4 -10 -6 0 -11 5 -11 10 0 6 2 10 4 10 3 0 8
-4 11 -10z m-1760 -40 c3 -5 1 -10 -4 -10 -6 0 -11 5 -11 10 0 6 2 10 4 10 3
0 8 -4 11 -10z m180 0 c3 -5 1 -10 -4 -10 -6 0 -11 5 -11 10 0 6 2 10 4 10 3
0 8 -4 11 -10z m215 0 c0 -5 -5 -10 -11 -10 -5 0 -7 5 -4 10 3 6 8 10 11 10 2
0 4 -4 4 -10z m910 0 c0 -5 -4 -10 -10 -10 -5 0 -10 5 -10 10 0 6 5 10 10 10
6 0 10 -4 10 -10z m340 0 c0 -5 -5 -10 -11 -10 -5 0 -7 5 -4 10 3 6 8 10 11
10 2 0 4 -4 4 -10z m-2087 -7 c-7 -2 -19 -2 -25 0 -7 3 -2 5 12 5 14 0 19 -2
13 -5z m0 -40 c-7 -2 -21 -2 -30 0 -10 3 -4 5 12 5 17 0 24 -2 18 -5z m1174
-45 c-3 -8 -6 -5 -6 6 -1 11 2 17 5 13 3 -3 4 -12 1 -19z m-700 6 c-3 -3 -12
-4 -19 -1 -8 3 -5 6 6 6 11 1 17 -2 13 -5z m-474 -41 c-7 -2 -21 -2 -30 0 -10
3 -4 5 12 5 17 0 24 -2 18 -5z m1527 3 c0 -3 -4 -8 -10 -11 -5 -3 -10 -1 -10
4 0 6 5 11 10 11 6 0 10 -2 10 -4z m-1085 -46 c3 -5 1 -10 -4 -10 -6 0 -11 5
-11 10 0 6 2 10 4 10 3 0 8 -4 11 -10z m180 0 c3 -5 1 -10 -4 -10 -6 0 -11 5
-11 10 0 6 2 10 4 10 3 0 8 -4 11 -10z m215 0 c0 -5 -5 -10 -11 -10 -5 0 -7 5
-4 10 3 6 8 10 11 10 2 0 4 -4 4 -10z m910 0 c0 -5 -4 -10 -10 -10 -5 0 -10 5
-10 10 0 6 5 10 10 10 6 0 10 -4 10 -10z m340 0 c0 -5 -4 -10 -10 -10 -5 0
-10 5 -10 10 0 6 5 10 10 10 6 0 10 -4 10 -10z m310 0 c0 -5 -5 -10 -11 -10
-5 0 -7 5 -4 10 3 6 8 10 11 10 2 0 4 -4 4 -10z m-2397 -7 c-7 -2 -19 -2 -25
0 -7 3 -2 5 12 5 14 0 19 -2 13 -5z m0 -40 c-7 -2 -21 -2 -30 0 -10 3 -4 5 12
5 17 0 24 -2 18 -5z"/>
<path d="M83 302 c-9 -6 -2 -30 28 -92 77 -162 94 -193 103 -192 5 0 26 33 48
73 30 56 36 74 26 81 -10 7 -9 9 2 5 22 -6 87 113 68 124 -19 13 -33 5 -32
-19 0 -12 -3 -19 -7 -17 -4 3 -26 -35 -50 -85 -24 -49 -50 -92 -57 -94 -7 -3
-11 -2 -8 2 2 4 -4 27 -14 50 -15 32 -23 40 -37 36 -14 -5 -15 -4 -4 4 19 14
6 43 -16 36 -14 -5 -15 -4 -4 4 11 8 10 16 -5 51 -19 43 -22 45 -41 33z"/>
<path d="M1743 303 c-23 -4 -23 -7 -23 -139 0 -74 -1 -137 -2 -141 -6 -17 91
0 142 25 70 35 112 87 114 141 1 43 -28 86 -51 76 -8 -2 -12 -1 -8 4 6 11 -61
35 -79 28 -8 -3 -19 0 -25 6 -8 8 -11 7 -11 -3 0 -11 -3 -11 -12 -2 -7 7 -14
11 -17 11 -4 -1 -16 -4 -28 -6z m109 -34 c30 -2 48 -7 48 -14 0 -7 6 -18 14
-24 23 -20 25 -58 3 -93 -12 -18 -21 -37 -22 -42 0 -5 -8 -10 -18 -12 -34 -5
-47 -13 -47 -31 0 -15 -2 -16 -10 -3 -6 9 -13 11 -17 5 -9 -11 -48 -13 -59 -2
-4 4 -2 7 4 7 9 0 12 33 12 109 0 108 0 110 22 106 13 -3 44 -6 70 -6z"/>
<path d="M474 258 c-23 -33 -43 -76 -37 -82 3 -3 1 -6 -5 -6 -6 0 -23 -26 -38
-57 -16 -32 -32 -59 -36 -61 -14 -6 -9 -30 7 -36 11 -4 22 8 37 39 l22 45 61
0 c56 0 63 -2 73 -25 8 -17 17 -23 29 -19 13 4 14 3 5 -3 -19 -14 -4 -42 19
-36 20 5 27 23 9 23 -5 0 -10 8 -10 19 0 10 -7 24 -15 31 -8 7 -15 16 -15 20
0 9 -75 139 -88 152 -5 5 -13 3 -18 -4z m35 -84 c12 -19 21 -38 21 -42 0 -8
-88 -7 -96 0 -2 3 2 11 11 18 8 7 15 18 15 24 0 10 19 36 26 36 1 0 11 -16 23
-36z"/>
<path d="M1043 254 c-51 -18 -119 -84 -126 -122 -6 -32 15 -82 43 -100 28 -17
93 -25 136 -18 33 7 34 8 34 56 0 42 -3 50 -18 50 -15 0 -18 -7 -15 -41 l3
-41 -62 4 c-39 2 -63 8 -63 15 0 7 -6 18 -12 24 -7 7 -13 20 -13 29 0 27 24
70 43 76 9 3 17 15 17 27 0 14 3 18 8 10 11 -18 82 7 82 29 0 21 -2 21 -57 2z"/>
<path d="M1294 259 c-11 -17 -16 -27 -77 -140 -26 -48 -47 -89 -47 -92 0 -2 7
-7 15 -11 10 -4 21 7 35 33 10 21 17 40 15 43 -2 2 29 5 70 6 60 2 75 0 75
-12 0 -16 32 -76 40 -76 3 0 11 4 18 9 11 6 9 16 -9 47 -32 58 -46 76 -51 67
-3 -4 -3 -2 -2 4 4 15 -28 73 -39 73 -5 0 -6 4 -3 9 3 5 -2 19 -12 32 -15 18
-20 20 -28 8z m37 -71 c5 1 9 -7 9 -17 0 -11 3 -26 6 -35 5 -13 -2 -16 -44
-16 l-51 0 24 42 c13 23 21 47 19 52 -3 6 2 2 11 -9 9 -11 21 -19 26 -17z"/>
<path d="M1563 256 c-38 -13 -76 -54 -68 -74 3 -7 5 -17 5 -21 0 -12 50 -32
63 -25 7 4 9 3 4 -1 -4 -5 0 -17 10 -27 15 -17 15 -19 -1 -37 -10 -11 -31 -23
-48 -26 -27 -6 -36 -31 -10 -29 7 1 20 2 31 2 25 3 81 58 81 81 0 18 -25 36
-43 32 -5 -1 -6 3 -2 9 3 5 -5 14 -18 19 -14 6 -28 14 -31 20 -12 18 13 51 39
51 13 0 27 5 31 11 11 19 -10 27 -43 15z m57 -166 c0 -5 -2 -10 -4 -10 -3 0
-8 5 -11 10 -3 6 -1 10 4 10 6 0 11 -4 11 -10z"/>
<path d="M2100 261 c0 -4 -11 -6 -25 -3 l-25 4 0 -121 c0 -119 0 -121 23 -122
12 -1 41 -3 65 -5 32 -2 42 0 42 11 0 11 -13 15 -48 15 l-49 0 1 48 1 47 38
-1 c25 -1 37 2 37 11 0 10 -10 12 -35 8 -19 -3 -35 -2 -36 3 -8 78 -7 79 44
82 33 2 47 7 47 18 0 17 -26 19 -33 2 -4 -10 -6 -10 -6 0 -1 13 -41 17 -41 3z"/>
<path d="M2234 257 c-7 -8 6 -45 49 -130 48 -98 61 -116 73 -106 8 6 14 15 14
19 0 5 20 43 45 84 25 42 45 79 45 83 0 4 7 14 16 24 14 16 14 18 -4 28 -17 9
-23 2 -60 -71 -23 -44 -39 -85 -35 -91 3 -6 1 -7 -5 -3 -7 4 -12 2 -12 -3 0
-30 -21 -2 -59 79 -45 96 -50 103 -67 87z"/>
<path d="M694 141 c1 -109 3 -121 18 -121 16 0 18 11 18 105 0 104 0 105 24
105 38 0 56 -10 56 -32 0 -24 -34 -70 -45 -60 -18 16 29 -56 60 -92 29 -35 35
-38 49 -26 15 12 15 14 -1 30 -10 9 -30 31 -45 48 l-28 31 25 25 c28 28 33 67
10 86 -8 6 -43 14 -78 17 l-63 5 0 -121z"/>
</g>
</svg>
